<svg xmlns="http://www.w3.org/2000/svg" viewBox="0 0 510.35 107.67"><defs><style>.cls-1{fill:#ffffff;}</style></defs><g id="Capa_2" data-name="Capa 2"><g id="Capa_1-2" data-name="Capa 1"><path class="cls-1" d="M169.44,78.77H159.27v-27l-7.41,17.41h-7l-7.4-17.41v27h-9.62V38.08h11.78l9,20.08,9-20.08h11.78Z"/><path class="cls-1" d="M193,79.59q-8.69,0-13.32-4.15T175.07,63.6q0-7.51,4.32-12t12.08-4.49q7,0,10.6,3.8t3.55,10.88v3.44h-21a8.75,8.75,0,0,0,.9,3.57,6.22,6.22,0,0,0,2,2.28,8.17,8.17,0,0,0,2.87,1.22,16.75,16.75,0,0,0,3.58.37,14.92,14.92,0,0,0,3.28-.37,16.31,16.31,0,0,0,3-1,21,21,0,0,0,2.17-1.12c.66-.4,1.21-.76,1.63-1.07h1v7.9l-2.15.86a19.5,19.5,0,0,1-2.66.81,29.58,29.58,0,0,1-3.22.64A30.36,30.36,0,0,1,193,79.59Zm3.17-20.11a7.32,7.32,0,0,0-1.4-4.62,5,5,0,0,0-4.06-1.59,5.71,5.71,0,0,0-4.36,1.67,6.94,6.94,0,0,0-1.74,4.54Z"/><path class="cls-1" d="M222.29,79.37q-5.83,0-8.51-2.4c-1.78-1.6-2.66-4.23-2.66-7.87V54.75h-3.67V48.08h3.67V39.31h9.56v8.77h9.21v6.67h-9.21V65.63c0,1.07,0,2,0,2.81a5.7,5.7,0,0,0,.44,2.16,3,3,0,0,0,1.35,1.52,5.8,5.8,0,0,0,2.83.56,8.26,8.26,0,0,0,2-.33,8.54,8.54,0,0,0,1.73-.6h.82V78.5a26.79,26.79,0,0,1-3.3.64A32.63,32.63,0,0,1,222.29,79.37Z"/><path class="cls-1" d="M250.72,75.52,249,77a11.37,11.37,0,0,1-2.09,1.31,13.2,13.2,0,0,1-2.51,1,13.6,13.6,0,0,1-3.4.33,9.1,9.1,0,0,1-6.76-2.73A9.39,9.39,0,0,1,231.51,70a10,10,0,0,1,1.36-5.52,9.35,9.35,0,0,1,3.94-3.33,20.33,20.33,0,0,1,6.2-1.75c2.41-.33,5-.59,7.76-.77v-.16a3.58,3.58,0,0,0-1.87-3.51,12.6,12.6,0,0,0-5.62-1,15.43,15.43,0,0,0-4,.61,30.7,30.7,0,0,0-4.43,1.57h-.82v-7.4c1-.28,2.48-.6,4.6-1a36.93,36.93,0,0,1,6.39-.56c5.29,0,9.13.88,11.55,2.64s3.62,4.44,3.62,8V78.77h-9.51Zm0-4.76V64.37c-1.62.16-2.93.3-3.94.42a13.32,13.32,0,0,0-2.95.7,4.08,4.08,0,0,0-2,1.32,3.71,3.71,0,0,0-.7,2.37,3.36,3.36,0,0,0,1.16,3,6,6,0,0,0,3.43.81,6.4,6.4,0,0,0,2.57-.57A7.92,7.92,0,0,0,250.72,70.76Z"/><path class="cls-1" d="M276.87,78.77h-9.56V36.24h9.56Z"/><path class="cls-1" d="M294,43.71H283.93V36.24H294Zm-.27,35.06H284.2V48.08h9.57Z"/><path class="cls-1" d="M316.15,79.59a24.25,24.25,0,0,1-7-1,15,15,0,0,1-5.48-3,13.61,13.61,0,0,1-3.58-5,18.22,18.22,0,0,1-1.28-7.12,18.15,18.15,0,0,1,1.39-7.49A14.11,14.11,0,0,1,304,51a14.91,14.91,0,0,1,5.4-2.83A22.74,22.74,0,0,1,321,47.82a23.28,23.28,0,0,1,5.11,1.87v8.2h-1.23q-.57-.54-1.41-1.2a12.91,12.91,0,0,0-1.81-1.2,11.67,11.67,0,0,0-2.35-1,9.93,9.93,0,0,0-2.93-.4,6.8,6.8,0,0,0-5.67,2.55,10.85,10.85,0,0,0-2,6.88c0,3.08.72,5.37,2.15,6.89a7.47,7.47,0,0,0,5.69,2.26A10.81,10.81,0,0,0,322,71.31a11,11,0,0,0,1.64-1.19q.68-.62,1.17-1.11h1.23v8.2l-1.9.82a15.94,15.94,0,0,1-2.2.77c-.93.25-1.8.45-2.61.59A21,21,0,0,1,316.15,79.59Z"/><path class="cls-1" d="M347.53,75.52,345.76,77a11,11,0,0,1-2.09,1.31,13.11,13.11,0,0,1-2.5,1,13.6,13.6,0,0,1-3.4.33A9.12,9.12,0,0,1,331,76.86,9.43,9.43,0,0,1,328.31,70a10,10,0,0,1,1.37-5.52,9.39,9.39,0,0,1,3.93-3.33,20.4,20.4,0,0,1,6.21-1.75q3.6-.49,7.76-.77v-.16a3.58,3.58,0,0,0-1.87-3.51,12.6,12.6,0,0,0-5.62-1,15.37,15.37,0,0,0-4,.61,30.7,30.7,0,0,0-4.43,1.57h-.82v-7.4c.95-.28,2.48-.6,4.59-1a37.13,37.13,0,0,1,6.4-.56q7.92,0,11.55,2.64t3.62,8V78.77h-9.51Zm0-4.76V64.37c-1.63.16-2.94.3-3.94.42a13.19,13.19,0,0,0-2.95.7,4.16,4.16,0,0,0-2,1.32,3.77,3.77,0,0,0-.69,2.37,3.33,3.33,0,0,0,1.16,3,6,6,0,0,0,3.43.81,6.44,6.44,0,0,0,2.57-.57A8,8,0,0,0,347.53,70.76Z"/><path class="cls-1" d="M373.46,79.62a27.07,27.07,0,0,1-6.41-.74,23.67,23.67,0,0,1-5-1.72V69.07h.79c.45.35,1,.73,1.56,1.15a13.73,13.73,0,0,0,2.43,1.31,18,18,0,0,0,3,1.08,14.09,14.09,0,0,0,3.65.45,9.35,9.35,0,0,0,3.56-.63,2.1,2.1,0,0,0,1.55-2,1.94,1.94,0,0,0-.71-1.62,8.27,8.27,0,0,0-2.76-1c-.73-.18-1.65-.37-2.76-.58a23.55,23.55,0,0,1-2.95-.73A11,11,0,0,1,364,63.15a8.77,8.77,0,0,1-1.82-5.78,8.32,8.32,0,0,1,.95-3.87,9.67,9.67,0,0,1,2.77-3.23,14.34,14.34,0,0,1,4.52-2.22,21.09,21.09,0,0,1,6.08-.82,26.26,26.26,0,0,1,5.94.64A22.6,22.6,0,0,1,387,49.42v7.76h-.77a15.41,15.41,0,0,0-1.55-1,21.29,21.29,0,0,0-2.08-1.11,13.91,13.91,0,0,0-2.69-.9,13,13,0,0,0-3.05-.36,7.87,7.87,0,0,0-3.51.71,2.14,2.14,0,0,0-1.44,1.89,2,2,0,0,0,.71,1.64,8.52,8.52,0,0,0,3.09,1.17c.82.2,1.76.4,2.83.59a21.69,21.69,0,0,1,3.08.78,10.46,10.46,0,0,1,5,3.13,8.32,8.32,0,0,1,1.71,5.48,8.86,8.86,0,0,1-1,4.11,9.35,9.35,0,0,1-2.87,3.3,15.05,15.05,0,0,1-4.64,2.24A22.82,22.82,0,0,1,373.46,79.62Z"/><path class="cls-1" d="M446.22,58.47a20.66,20.66,0,0,1-2.49,10.18,18.73,18.73,0,0,1-6.28,6.9,17.75,17.75,0,0,1-6.91,2.63,50,50,0,0,1-7.94.59H409.87V38.08H422.5a56.34,56.34,0,0,1,8,.54,17.63,17.63,0,0,1,7,2.65,18.37,18.37,0,0,1,6.35,6.93A21.65,21.65,0,0,1,446.22,58.47Zm-10.5-.09a15.64,15.64,0,0,0-1.38-6.87,10.24,10.24,0,0,0-8.61-5.73c-1.52-.07-3.34-.11-5.45-.11h-.19V71.15h.19c2.3,0,4.23,0,5.81-.13a9.32,9.32,0,0,0,4.5-1.46,10.1,10.1,0,0,0,3.82-4.37A15.85,15.85,0,0,0,435.72,58.38Z"/><path class="cls-1" d="M480,78.77h-8.58l-2.5-2.43a13.06,13.06,0,0,1-4.15,2.34,14.21,14.21,0,0,1-4.43.69c-3.32,0-5.92-.82-7.82-2.46a8.84,8.84,0,0,1-2.39-9.28,8.37,8.37,0,0,1,1.19-2.16,8,8,0,0,1,1.59-1.59,18.39,18.39,0,0,1,1.78-1.19,17.76,17.76,0,0,1-1.47-1.28,7.8,7.8,0,0,1-1.15-1.4,6,6,0,0,1-.77-1.62,7,7,0,0,1-.27-2.06,6,6,0,0,1,2.16-4.66,8.43,8.43,0,0,1,3-1.57,16.51,16.51,0,0,1,8.47-.15,9.14,9.14,0,0,1,2.81,1.29,5.55,5.55,0,0,1,1.69,2,5.37,5.37,0,0,1,.59,2.48,8.5,8.5,0,0,1-.26,1.92,5.76,5.76,0,0,1-.88,1.95,7.73,7.73,0,0,1-2,1.9,12.21,12.21,0,0,1-3.05,1.46l5.51,5.32V62h6.73v2.14a16.11,16.11,0,0,1-.16,2,12.09,12.09,0,0,1-1.24,3.94,9.36,9.36,0,0,1-1.3,1.91L480,78.39Zm-14.26-5.69L458,65.78a6.59,6.59,0,0,0-.69,1.45,6.12,6.12,0,0,0-.37,2.13,5.19,5.19,0,0,0,.43,2.21,4.51,4.51,0,0,0,1.13,1.55,4.82,4.82,0,0,0,1.55.93,5.21,5.21,0,0,0,1.72.31,7.56,7.56,0,0,0,2.12-.28A5.69,5.69,0,0,0,465.75,73.08Zm-2.93-16.56a4,4,0,0,0-.26-1.56,2.44,2.44,0,0,0-.67-.92,1.61,1.61,0,0,0-.81-.39,4.29,4.29,0,0,0-.69-.07,3,3,0,0,0-.64.07,2.22,2.22,0,0,0-.79.41,2,2,0,0,0-.62.83,3.19,3.19,0,0,0-.27,1.37,3.47,3.47,0,0,0,.77,2.13A13.48,13.48,0,0,0,461,60.5a6.14,6.14,0,0,0,1.39-1.82A4.76,4.76,0,0,0,462.82,56.52Z"/><path class="cls-1" d="M510.35,45.84H493.27v7.68H509v7.76H493.27V78.77H483.1V38.08h27.25Z"/><path class="cls-1" d="M107.7,47.2l-13.26-.06L71.35,47l.05-11.55.09-18.7A41.08,41.08,0,0,1,90.7,35.57l14.27.06A54,54,0,0,0,59.14,0l-.06,13.19L59,35.42l0,11.56-10.69,0,.06-11.55.1-22.1L48.46.05A53.54,53.54,0,0,0,36,2.84L36,17.09l-.09,18.23,0,11.55-22.09-.1L.46,46.71A55.34,55.34,0,0,0,0,53.81c0,1.8.09,3.57.26,5.32A54,54,0,0,0,48,107.53L48,94.3l.16-34.95,10.68,0-.16,35.08-.06,13.19a53.79,53.79,0,0,0,12.43-2.54L71.15,91l.14-31.55,23.29.11,13.21.06a54.8,54.8,0,0,0-.09-12.43ZM35.62,90.37A41,41,0,0,1,13.48,59.19l22.29.11Z"/></g></g></svg>